<svg width="235" height="164" viewBox="0 0 235 164" fill="none" xmlns="http://www.w3.org/2000/svg">
<g clip-path="url(#clip0_88_3255)">
<path fill-rule="evenodd" clip-rule="evenodd" d="M230.629 92.1591L224.933 90.9974C222.553 90.5096 220.761 88.501 220.602 86.0799C220.283 81.3937 219.383 76.8315 217.956 72.4648C217.207 70.1498 218.109 67.6178 220.14 66.2822L224.983 63.0678C227.5 61.408 228.198 58.0226 226.538 55.5074L220.394 46.2223C218.73 43.7072 215.339 43.0202 212.824 44.6828L207.973 47.8878C205.941 49.23 203.258 49.0711 201.427 47.4724C197.967 44.4478 194.118 41.834 189.93 39.7099C187.761 38.6112 186.621 36.1835 187.111 33.7971L188.267 28.1033C188.874 25.1492 186.962 22.2694 184.01 21.6632L173.098 19.4395C170.145 18.8332 167.263 20.7421 166.657 23.6943L165.495 29.3881C165.007 31.7679 163.005 33.5621 160.581 33.7247C155.896 34.0386 151.332 34.94 146.967 36.362C144.649 37.1224 142.119 36.2117 140.775 34.1806L137.568 29.3317C135.905 26.8166 132.518 26.1239 130.006 27.7931L120.715 33.9287C118.198 35.5913 117.512 38.9796 119.174 41.4947L122.38 46.3436C123.722 48.3747 123.564 51.0599 121.959 52.8861C118.941 56.3477 116.325 60.1974 114.194 64.3799C113.101 66.5501 110.668 67.6892 108.285 67.208L102.591 66.0444C99.6367 65.4382 96.7552 67.3471 96.1498 70.3012L93.9254 81.2085C93.3237 84.1644 95.2294 87.0442 98.1842 87.6495L103.877 88.8103C106.259 89.299 108.046 91.2981 108.215 93.7296C108.523 98.4065 109.429 102.971 110.853 107.334C111.615 109.652 110.704 112.183 108.677 113.528L103.821 116.73C101.305 118.391 100.617 121.781 102.28 124.296L108.414 133.579C110.081 136.096 113.472 136.781 115.989 135.121L120.832 131.912C122.87 130.57 125.55 130.728 127.384 132.335C130.845 135.353 134.693 137.975 138.875 140.092C141.044 141.188 142.195 143.627 141.707 146.008L140.546 151.7C139.938 154.653 141.845 157.539 144.803 158.14L155.713 160.37C158.66 160.967 161.548 159.06 162.157 156.107L163.313 150.413C163.799 148.032 165.805 146.246 168.237 146.077C172.915 145.764 177.479 144.861 181.844 143.44C184.158 142.684 186.689 143.588 188.033 145.619L191.237 150.467C192.904 152.984 196.293 153.677 198.81 152.015L208.096 145.871C210.613 144.211 211.307 140.823 209.639 138.305L206.43 133.456C205.089 131.425 205.246 128.748 206.846 126.91C209.877 123.455 212.492 119.606 214.612 115.42C215.715 113.253 218.137 112.109 220.521 112.598L226.224 113.756C229.176 114.362 232.064 112.454 232.665 109.5L234.888 98.5916C235.495 95.6394 233.586 92.7559 230.63 92.1581M145.103 71.2768C155.391 60.6185 172.374 60.3168 183.035 70.6029C193.696 80.8889 193.997 97.867 183.709 108.524C173.421 119.183 156.439 119.484 145.778 109.198C135.116 98.9131 134.815 81.935 145.103 71.2768Z" fill="#E0F7F8"/>
<path fill-rule="evenodd" clip-rule="evenodd" d="M94.0084 131.973L90.497 129.753C89.0304 128.824 88.3413 127.027 88.8499 125.369C89.8257 122.157 90.3804 118.88 90.5346 115.601C90.6211 113.864 91.8658 112.402 93.5618 112.024L97.6138 111.104C99.716 110.633 101.042 108.547 100.571 106.445L98.82 98.6839C98.3462 96.5814 96.2544 95.2628 94.1522 95.7365L90.0984 96.6482C88.3995 97.0297 86.6481 96.244 85.8292 94.7111C84.2846 91.8134 82.3742 89.0906 80.116 86.6102C78.9446 85.3263 78.7989 83.4146 79.7315 81.9446L81.9483 78.4332C83.1028 76.6136 82.5557 74.2038 80.7365 73.0505L74.0089 68.7994C72.1897 67.6453 69.7802 68.1904 68.6257 70.01L66.4051 73.5195C65.4753 74.9857 63.6824 75.6775 62.0212 75.1718C58.8107 74.1944 55.5324 73.6398 52.2551 73.4829C50.513 73.403 49.053 72.1539 48.6704 70.4565L47.7575 66.4037C47.2846 64.3021 45.1966 62.9797 43.0944 63.459L35.3298 65.2035C33.2268 65.6762 31.9096 67.7665 32.3816 69.869L33.2944 73.9218C33.6761 75.6192 32.8893 77.3731 31.354 78.187C28.4593 79.735 25.7348 81.6448 23.25 83.8987C21.9705 85.0726 20.0545 85.2164 18.5851 84.2906L15.0756 82.0696C13.2555 80.9155 10.8459 81.4606 9.69235 83.2812L5.44012 90.006C4.28845 91.8284 4.83091 94.2355 6.65195 95.3896L10.1615 97.6078C11.629 98.5383 12.3172 100.327 11.8124 101.994C10.8318 105.197 10.2809 108.478 10.1248 111.754C10.0468 113.496 8.7964 114.956 7.10134 115.341L3.04465 116.25C0.94157 116.722 -0.377439 118.813 0.096389 120.915L1.84128 128.673C2.31699 130.777 4.40879 132.095 6.51093 131.623L10.561 130.707C12.2636 130.327 14.0142 131.111 14.8321 132.649C16.3795 135.543 18.2861 138.27 20.5434 140.746C21.7148 142.028 21.8652 143.95 20.9354 145.416L18.7167 148.925C17.5622 150.745 18.1047 153.157 19.9276 154.307L26.6524 158.563C28.4706 159.71 30.8839 159.167 32.0394 157.348L34.2562 153.835C35.1851 152.367 36.9779 151.683 38.6466 152.187C41.8516 153.163 45.1308 153.716 48.4071 153.873C50.1445 153.955 51.6073 155.199 51.99 156.897L52.901 160.949C53.3767 163.054 55.4657 164.375 57.5687 163.902L65.3324 162.15C67.4345 161.68 68.7582 159.592 68.2816 157.487L67.3678 153.433C66.9861 151.736 67.7701 149.986 69.3054 149.165C72.2066 147.625 74.9302 145.716 77.4084 143.456C78.6955 142.287 80.6039 142.137 82.0734 143.068L85.5904 145.287C87.4096 146.44 89.8229 145.897 90.9727 144.076L95.2249 137.35C96.3794 135.531 95.8341 133.12 94.0103 131.972M42.1562 96.3408C51.7343 91.8266 63.1588 95.9301 67.6733 105.505C72.1888 115.079 68.0842 126.501 58.507 131.015C48.9298 135.529 37.5053 131.427 32.9898 121.851C28.4744 112.277 32.5781 100.855 42.1562 96.3408Z" fill="#E0F7F8"/>
<path fill-rule="evenodd" clip-rule="evenodd" d="M105.274 40.6865L102.854 39.5041C101.843 39.0088 101.273 37.9006 101.482 36.7963C101.884 34.6571 102.01 32.5067 101.876 30.3825C101.809 29.2575 102.508 28.2264 103.574 27.8636L106.12 26.9839C107.442 26.5318 108.148 25.0938 107.696 23.7733L106.018 18.8953C105.564 17.5738 104.123 16.8727 102.802 17.3266L100.254 18.2007C99.1865 18.5663 98.0028 18.1847 97.3664 17.2543C96.1658 15.4967 94.7424 13.8773 93.1113 12.4383C92.2661 11.6939 92.0367 10.4721 92.5331 9.45888L93.713 7.03962C94.3278 5.78488 93.8051 4.27167 92.551 3.65699L87.9152 1.39375C86.661 0.779067 85.1474 1.3007 84.5326 2.5545L83.3499 4.97282C82.8544 5.98319 81.7479 6.55558 80.6423 6.34787C78.5044 5.94466 76.3524 5.81965 74.2296 5.9503C73.1015 6.02267 72.072 5.32058 71.7054 4.25381L70.8301 1.70673C70.3769 0.385257 68.9376 -0.318715 67.6176 0.139008L62.7374 1.812C61.4156 2.26596 60.7152 3.70586 61.1683 5.02639L62.0436 7.57347C62.4102 8.64024 62.0267 9.82637 61.095 10.4589C59.3398 11.661 57.719 13.084 56.2768 14.7128C55.535 15.5597 54.311 15.788 53.2984 15.2955L50.8795 14.1122C49.6253 13.4975 48.1108 14.0192 47.4959 15.2739L45.2311 19.9075C44.6182 21.1632 45.1381 22.6755 46.3931 23.2911L48.8112 24.4726C49.8228 24.9679 50.3925 26.0722 50.1857 27.1822C49.7805 29.3158 49.6573 31.4681 49.7889 33.5903C49.8613 34.7182 49.159 35.7474 48.0939 36.1158L45.5442 36.988C44.2224 37.441 43.521 38.8819 43.9751 40.2024L45.6486 45.0776C46.1036 46.4 47.5448 47.1011 48.8666 46.6481L51.4116 45.7712C52.4815 45.4056 53.6651 45.7872 54.3006 46.7214C55.5021 48.4771 56.9236 50.0994 58.5538 51.5346C59.399 52.278 59.6321 53.5055 59.1367 54.5159L57.9549 56.9342C57.3391 58.188 57.86 59.704 59.116 60.3168L63.7509 62.5838C65.0031 63.1938 66.5205 62.6741 67.1363 61.4193L68.3162 59.0001C68.8107 57.9887 69.9182 57.4211 71.0285 57.6269C73.1626 58.0292 75.3145 58.1542 77.4374 58.0235C78.5627 57.953 79.5931 58.6523 79.9607 59.7191L80.8341 62.2661C81.2891 63.5886 82.7294 64.2925 84.0512 63.8395L88.9296 62.1618C90.2514 61.7097 90.9556 60.2708 90.5005 58.9484L89.6243 56.4003C89.2586 55.3336 89.6394 54.1512 90.5711 53.513C92.3319 52.3156 93.9518 50.8926 95.3883 49.261C96.1348 48.417 97.3541 48.1848 98.3667 48.6811L100.79 49.8625C102.044 50.4772 103.561 49.9565 104.173 48.7008L106.437 44.0663C107.052 42.8125 106.53 41.2983 105.274 40.6865ZM69.339 21.3935C75.1914 17.8078 82.8431 19.6434 86.4298 25.4942C90.0164 31.345 88.1803 38.9947 82.3279 42.5803C76.4756 46.166 68.8238 44.3304 65.2372 38.4796C61.6506 32.6288 63.4867 24.9791 69.339 21.3935Z" fill="#E0F7F8"/>
<path fill-rule="evenodd" clip-rule="evenodd" d="M21.9172 83.2293H38.5736V61.5565L21.9172 83.2293ZM36.2468 117.636V100.86H2.56641V83.3514L42.494 32.1702H55.8439V83.2293H66.6216V100.861H55.8439V117.636H36.2477L36.2468 117.636Z" fill="#4ECDD7"/>
<path fill-rule="evenodd" clip-rule="evenodd" d="M116.815 74.4349C116.815 66.7993 114.092 49.4416 104.579 49.451C95.3872 49.4604 92.2199 66.5784 92.2199 74.4349C92.2199 82.2914 94.1848 99.714 104.579 99.7958C114.347 99.8719 116.815 82.2143 116.815 74.4349ZM136.515 74.4349C136.515 80.6626 135.699 86.394 134.068 91.6301C132.437 96.8661 130.194 101.395 127.338 105.217C124.483 109.039 121.118 112.01 117.243 114.134C113.367 116.257 109.146 117.318 104.578 117.318C100.01 117.318 95.768 116.257 91.8523 114.134C87.9367 112.01 84.5512 109.039 81.696 105.217C78.8409 101.395 76.6184 96.8671 75.0277 91.6301C73.437 86.394 72.6416 80.6616 72.6416 74.4349C72.6416 68.2082 73.437 62.4759 75.0277 57.2398C76.6184 52.0037 78.8409 47.4744 81.696 43.6528C84.5512 39.8313 87.9367 36.8359 91.8523 34.6657C95.768 32.4955 100.01 31.4109 104.578 31.4109C109.146 31.4109 113.367 32.4955 117.243 34.6657C121.117 36.8359 124.483 39.8313 127.338 43.6528C130.193 47.4744 132.436 52.0028 134.068 57.2398C135.699 62.4759 136.515 68.2082 136.515 74.4349Z" fill="#4ECDD7"/>
<path fill-rule="evenodd" clip-rule="evenodd" d="M160.832 83.2293H177.489V61.5565L160.832 83.2293ZM175.162 117.636V100.86H141.48V83.3514L181.408 32.1702H194.758V83.2293H205.536V100.861H194.758V117.636H175.162V117.636Z" fill="#4ECDD7"/>
<path fill-rule="evenodd" clip-rule="evenodd" d="M135.708 133.868H139.327C139.794 133.868 140.196 133.648 140.534 133.205C140.871 132.762 141.04 132.195 141.04 131.505C141.04 130.814 140.848 130.234 140.461 129.816C140.075 129.397 139.656 129.189 139.206 129.189H135.707V133.868H135.708ZM131.75 142.842V125.714H139.472C140.277 125.714 141.021 125.883 141.704 126.221C142.387 126.558 142.979 127.001 143.478 127.548C143.976 128.095 144.366 128.713 144.648 129.405C144.93 130.097 145.071 130.796 145.071 131.504C145.071 132.035 145.007 132.545 144.878 133.036C144.749 133.526 144.564 133.989 144.323 134.423C144.082 134.857 143.788 135.247 143.442 135.593C143.096 135.939 142.706 136.232 142.272 136.474L146.036 142.842H141.572L138.29 137.318H135.709V142.842H131.751H131.75ZM116.451 134.303C116.451 134.962 116.548 135.602 116.741 136.221C116.933 136.84 117.219 137.391 117.597 137.873C117.975 138.355 118.446 138.742 119.009 139.031C119.572 139.321 120.215 139.465 120.939 139.465C121.663 139.465 122.355 139.313 122.918 139.007C123.481 138.701 123.948 138.303 124.318 137.812C124.688 137.322 124.966 136.767 125.151 136.148C125.336 135.528 125.428 134.898 125.428 134.254C125.428 133.61 125.332 132.955 125.139 132.335C124.946 131.716 124.657 131.169 124.27 130.695C123.884 130.221 123.414 129.843 122.859 129.562C122.304 129.281 121.664 129.14 120.941 129.14C120.218 129.14 119.529 129.288 118.974 129.586C118.42 129.884 117.952 130.274 117.574 130.756C117.197 131.239 116.915 131.789 116.73 132.409C116.545 133.028 116.453 133.659 116.453 134.303H116.451ZM120.915 142.987C119.644 142.987 118.485 142.738 117.44 142.239C116.395 141.741 115.501 141.085 114.762 140.273C114.022 139.461 113.446 138.532 113.036 137.487C112.627 136.442 112.421 135.364 112.421 134.255C112.421 133.146 112.634 132.043 113.06 130.998C113.486 129.953 114.082 129.032 114.845 128.236C115.61 127.44 116.514 126.804 117.56 126.33C118.606 125.855 119.748 125.618 120.987 125.618C122.226 125.618 123.416 125.867 124.462 126.366C125.507 126.864 126.4 127.524 127.14 128.345C127.88 129.165 128.452 130.098 128.853 131.143C129.256 132.188 129.457 133.25 129.457 134.327C129.457 135.404 129.243 136.539 128.818 137.584C128.392 138.629 127.8 139.55 127.044 140.346C126.289 141.142 125.388 141.781 124.342 142.264C123.296 142.747 122.154 142.988 120.915 142.988V142.987ZM101.2 133.868H104.82C105.286 133.868 105.688 133.648 106.026 133.205C106.363 132.762 106.533 132.195 106.533 131.505C106.533 130.814 106.34 130.234 105.953 129.816C105.567 129.397 105.149 129.189 104.698 129.189H101.199V133.868H101.2ZM97.2422 142.842V125.714H104.964C105.769 125.714 106.513 125.883 107.196 126.221C107.88 126.558 108.471 127.001 108.97 127.548C109.469 128.095 109.859 128.713 110.141 129.405C110.422 130.097 110.563 130.796 110.563 131.504C110.563 132.035 110.499 132.545 110.37 133.036C110.241 133.526 110.056 133.989 109.816 134.423C109.574 134.857 109.281 135.247 108.935 135.593C108.589 135.939 108.199 136.232 107.764 136.474L111.528 142.842H107.065L103.783 137.318H101.201V142.842H97.2431H97.2422ZM85.0317 133.868H88.6512C89.1175 133.868 89.5199 133.648 89.8574 133.205C90.1949 132.762 90.3641 132.195 90.3641 131.505C90.3641 130.814 90.1714 130.234 89.785 129.816C89.3986 129.397 88.9803 129.189 88.5299 129.189H85.0308V133.868H85.0317ZM81.0737 142.842V125.714H88.796C89.6008 125.714 90.3444 125.883 91.0279 126.221C91.7114 126.558 92.3027 127.001 92.8019 127.548C93.3002 128.095 93.6903 128.713 93.9724 129.405C94.2535 130.097 94.3945 130.796 94.3945 131.504C94.3945 132.035 94.3306 132.545 94.2018 133.036C94.073 133.526 93.8878 133.989 93.6471 134.423C93.4055 134.857 93.1122 135.247 92.7662 135.593C92.4202 135.939 92.0301 136.232 91.5957 136.474L95.36 142.842H90.8963L87.6142 137.318H85.0326V142.842H81.0747H81.0737ZM78.6604 139.369V142.842H66.6191V125.714H78.4432V129.188H70.5771V132.517H77.3339V135.726H70.5771V139.369H78.6604Z" fill="#4ECDD7"/>
<path fill-rule="evenodd" clip-rule="evenodd" d="M163.438 18.415V15.0832H166.117V18.415H163.438ZM158.551 18.415V15.0832H161.23V18.415H158.551ZM152.601 18.619C151.687 18.619 150.789 18.4724 149.902 18.1791C149.017 17.8859 148.266 17.4601 147.653 16.9018L148.819 14.898C149.473 15.3473 150.111 15.695 150.731 15.9403C151.352 16.1856 151.948 16.3078 152.52 16.3078C152.943 16.3078 153.271 16.2326 153.502 16.0832C153.733 15.9338 153.85 15.7157 153.85 15.429C153.85 15.1424 153.703 14.9149 153.41 14.7439C153.116 14.5737 152.602 14.3933 151.866 14.2025C151.144 13.9985 150.534 13.8002 150.036 13.6094C149.538 13.4186 149.132 13.2072 148.819 12.9759C148.506 12.7447 148.28 12.4787 148.144 12.1789C148.008 11.8791 147.939 11.5248 147.939 11.1159C147.939 10.5708 148.048 10.0736 148.266 9.62339C148.484 9.17318 148.784 8.79253 149.166 8.47861C149.548 8.16563 150.001 7.92032 150.525 7.74268C151.05 7.56599 151.62 7.4767 152.233 7.4767C153.037 7.4767 153.791 7.58572 154.492 7.80378C155.194 8.02183 155.872 8.41658 156.526 8.98897L155.259 10.9514C154.645 10.5294 154.1 10.2221 153.623 10.0313C153.147 9.8405 152.683 9.74557 152.233 9.74557C151.878 9.74557 151.578 9.817 151.333 9.95987C151.088 10.1027 150.965 10.3311 150.965 10.645C150.965 10.959 151.097 11.1695 151.363 11.3199C151.629 11.4703 152.123 11.6338 152.846 11.8105C153.609 12.0144 154.253 12.2193 154.778 12.4233C155.302 12.6272 155.728 12.8556 156.055 13.1085C156.383 13.3604 156.621 13.6498 156.771 13.9769C156.921 14.304 156.995 14.6922 156.995 15.1424C156.995 16.2054 156.601 17.0503 155.81 17.6772C155.019 18.3041 153.949 18.6171 152.599 18.6171L152.601 18.619ZM140.967 15.8595C141.322 15.8595 141.645 15.7815 141.938 15.6245C142.232 15.4676 142.487 15.2599 142.705 15.0014C142.924 14.742 143.091 14.4393 143.207 14.0916C143.322 13.7438 143.38 13.3792 143.38 12.9976C143.38 12.616 143.316 12.2381 143.186 11.9045C143.056 11.5708 142.879 11.2804 142.655 11.036C142.43 10.7907 142.157 10.5999 141.837 10.4636C141.516 10.3274 141.172 10.2597 140.804 10.2597C140.354 10.2597 139.922 10.3922 139.506 10.6582C139.091 10.9242 138.774 11.2813 138.556 11.7315V13.9393C138.774 14.4845 139.105 14.9412 139.548 15.3087C139.99 15.6762 140.464 15.8604 140.969 15.8604L140.967 15.8595ZM142.071 18.619C141.253 18.619 140.544 18.4489 139.944 18.1077C139.344 17.7675 138.881 17.29 138.554 16.6772V22.7686H135.282V7.68347H138.124V9.42131C138.52 8.80851 139.014 8.33105 139.607 7.99081C140.2 7.65058 140.905 7.47952 141.723 7.47952C142.445 7.47952 143.11 7.62238 143.717 7.90904C144.323 8.19477 144.848 8.5867 145.292 9.08484C145.735 9.58203 146.082 10.1685 146.334 10.8424C146.586 11.5172 146.712 12.2428 146.712 13.0192C146.712 13.7955 146.597 14.5662 146.364 15.2476C146.133 15.9291 145.813 16.5184 145.404 17.0156C144.995 17.5128 144.504 17.9047 143.931 18.1914C143.359 18.478 142.738 18.6209 142.071 18.6209V18.619ZM125.529 13.0587C125.529 13.9036 125.754 14.5813 126.204 15.0926C126.654 15.6039 127.227 15.8595 127.922 15.8595C128.262 15.8595 128.576 15.7909 128.862 15.6546C129.149 15.5183 129.397 15.3275 129.608 15.0822C129.82 14.8369 129.986 14.5408 130.109 14.1931C130.232 13.8453 130.294 13.4675 130.294 13.0587C130.294 12.2137 130.069 11.536 129.619 11.0248C129.169 10.5135 128.603 10.2587 127.922 10.2587C127.581 10.2587 127.264 10.3264 126.971 10.4627C126.678 10.599 126.426 10.7898 126.215 11.0351C126.003 11.2804 125.837 11.5765 125.713 11.9242C125.591 12.272 125.529 12.6498 125.529 13.0587ZM127.922 18.619C127.009 18.619 126.194 18.4696 125.478 18.1697C124.763 17.8699 124.159 17.4648 123.669 16.9535C123.178 16.4422 122.807 15.8501 122.555 15.1753C122.303 14.5004 122.177 13.7955 122.177 13.0596C122.177 12.3237 122.303 11.6188 122.555 10.9439C122.807 10.2691 123.178 9.67602 123.669 9.16566C124.159 8.65437 124.763 8.24552 125.478 7.93912C126.194 7.63272 127.009 7.47952 127.922 7.47952C128.835 7.47952 129.646 7.63272 130.355 7.93912C131.064 8.24552 131.664 8.65437 132.154 9.16566C132.645 9.67696 133.02 10.2691 133.279 10.9439C133.538 11.6188 133.667 12.3237 133.667 13.0596C133.667 13.7955 133.541 14.5004 133.289 15.1753C133.037 15.8501 132.666 16.4422 132.175 16.9535C131.684 17.4648 131.081 17.8699 130.365 18.1697C129.65 18.4696 128.835 18.619 127.922 18.619ZM110.113 11.178C110.113 11.7362 110.195 12.2786 110.358 12.803C110.522 13.3275 110.763 13.7946 111.084 14.2034C111.405 14.6123 111.803 14.9394 112.28 15.1847C112.756 15.43 113.303 15.5522 113.916 15.5522C114.529 15.5522 115.115 15.4225 115.592 15.164C116.069 14.9055 116.464 14.5681 116.777 14.1527C117.091 13.7373 117.326 13.2664 117.483 12.7419C117.64 12.2175 117.718 11.6827 117.718 11.1375C117.718 10.5924 117.636 10.0369 117.472 9.51248C117.309 8.98803 117.063 8.52467 116.736 8.1224C116.409 7.72013 116.01 7.40057 115.54 7.16184C115.07 6.92311 114.528 6.80374 113.915 6.80374C113.302 6.80374 112.719 6.92969 112.248 7.18157C111.778 7.43346 111.382 7.7643 111.062 8.17315C110.742 8.582 110.503 9.04912 110.347 9.57357C110.19 10.098 110.112 10.6328 110.112 11.178H110.113ZM113.896 18.5372C112.819 18.5372 111.838 18.3258 110.951 17.9037C110.065 17.4808 109.309 16.9263 108.682 16.2373C108.055 15.5493 107.568 14.7617 107.22 13.8764C106.872 12.99 106.698 12.0774 106.698 11.1375C106.698 10.1977 106.879 9.26341 107.24 8.37804C107.601 7.49268 108.106 6.71257 108.752 6.03774C109.4 5.3629 110.166 4.82529 111.053 4.42302C111.939 4.02075 112.907 3.82056 113.956 3.82056C115.005 3.82056 116.014 4.03203 116.901 4.45404C117.787 4.87604 118.543 5.43527 119.17 6.12985C119.797 6.82442 120.281 7.61486 120.622 8.50117C120.963 9.38748 121.133 10.2869 121.133 11.1996C121.133 12.1122 120.953 13.0737 120.592 13.9591C120.231 14.8454 119.729 15.6255 119.089 16.2994C118.448 16.9742 117.685 17.5156 116.799 17.9244C115.913 18.3333 114.945 18.5372 113.896 18.5372Z" fill="#4ECDD7"/>
</g>
<defs>
<clipPath id="clip0_88_3255">
<rect width="235" height="164" fill="white"/>
</clipPath>
</defs>
</svg>
