<svg width="262" height="182" viewBox="0 0 262 182" fill="none" xmlns="http://www.w3.org/2000/svg">
<path d="M259.058 0H2.76766C1.23912 0 0 1.24216 0 2.77443V178.398C0 179.93 1.23912 181.172 2.76766 181.172H259.058C260.586 181.172 261.825 179.93 261.825 178.398V2.77443C261.825 1.24216 260.586 0 259.058 0Z" fill="white"/>
<path d="M2.76766 0H259.058C260.586 0 261.825 1.24392 261.825 2.77443V30.9944H0V2.77443C0 1.24193 1.24088 0 2.76766 0Z" fill="#CCCCCC"/>
<path d="M75.8484 11.2251L73.0033 6.07627C72.5149 5.19259 71.5878 4.64526 70.5812 4.64526H33.7817C32.7751 4.64526 31.8459 5.19259 31.3595 6.07627L28.5144 11.2251C28.026 12.1088 27.0988 12.6561 26.0922 12.6561H0V30.9964H261.825V12.6561H78.2706C77.264 12.6561 76.3349 12.1088 75.8484 11.2251Z" fill="#E6E6E6"/>
<path d="M238.67 17.8208H26.8848V25.6724H238.67V17.8208Z" fill="white"/>
<path d="M253.647 17.8208H245.015C244.65 17.8208 244.354 18.1175 244.354 18.4836V18.9214C244.354 19.2875 244.65 19.5842 245.015 19.5842H253.647C254.012 19.5842 254.308 19.2875 254.308 18.9214V18.4836C254.308 18.1175 254.012 17.8208 253.647 17.8208Z" fill="#CCCCCC"/>
<path d="M253.647 20.864H245.015C244.65 20.864 244.354 21.1607 244.354 21.5268V21.9646C244.354 22.3307 244.65 22.6274 245.015 22.6274H253.647C254.012 22.6274 254.308 22.3307 254.308 21.9646V21.5268C254.308 21.1607 254.012 20.864 253.647 20.864Z" fill="#CCCCCC"/>
<path d="M253.647 23.907H245.015C244.65 23.907 244.354 24.2037 244.354 24.5697V25.0076C244.354 25.3736 244.65 25.6704 245.015 25.6704H253.647C254.012 25.6704 254.308 25.3736 254.308 25.0076V24.5697C254.308 24.2037 254.012 23.907 253.647 23.907Z" fill="#CCCCCC"/>
<path d="M235.112 24.2772L233.672 23.5189C233.637 23.501 233.593 23.501 233.557 23.5189L232.118 24.2772C232.028 24.325 231.923 24.2473 231.939 24.1478L232.215 22.5417C232.221 22.5019 232.209 22.4601 232.179 22.4322L231.014 21.2938C230.94 21.2221 230.982 21.0987 231.081 21.0828L232.692 20.848C232.731 20.842 232.767 20.8161 232.785 20.7803L233.506 19.3174C233.551 19.2259 233.68 19.2259 233.726 19.3174L234.447 20.7803C234.464 20.8161 234.498 20.842 234.54 20.848L236.15 21.0828C236.251 21.0967 236.291 21.2221 236.218 21.2938L235.052 22.4322C235.022 22.4601 235.01 22.5019 235.016 22.5417L235.29 24.1478C235.308 24.2493 235.203 24.325 235.112 24.2772ZM231.939 21.5943L232.642 22.281C232.672 22.3088 232.684 22.3506 232.678 22.3904L232.511 23.3597C232.493 23.4612 232.598 23.5368 232.69 23.489L233.559 23.0313C233.595 23.0114 233.639 23.0114 233.674 23.0313L234.544 23.489C234.633 23.5368 234.738 23.4592 234.723 23.3597L234.556 22.3904C234.55 22.3506 234.562 22.3088 234.592 22.281L235.294 21.5943C235.368 21.5227 235.326 21.3993 235.227 21.3833L234.256 21.242C234.216 21.2361 234.181 21.2102 234.163 21.1744L233.728 20.2927C233.682 20.2011 233.553 20.2011 233.508 20.2927L233.073 21.1744C233.055 21.2102 233.021 21.2361 232.979 21.242L232.009 21.3833C231.907 21.3973 231.868 21.5227 231.941 21.5943H231.939Z" fill="#CCCCCC"/>
<path d="M33.5983 21.9587C33.4891 23.127 32.5162 24.0485 31.323 24.0485C30.0563 24.0485 29.0259 23.0155 29.0259 21.7457C29.0259 20.4759 30.0563 19.443 31.323 19.443C31.8412 19.443 32.3177 19.6181 32.7009 19.9107L32.0814 20.2769L32.955 20.7725L33.8286 21.268L33.8226 20.466V20.261L33.8127 19.2539L33.1913 19.6201C32.7028 19.1803 32.0556 18.9275 31.325 18.9275C29.7744 18.9275 28.5156 20.1913 28.5156 21.7457C28.5156 23.3001 29.7764 24.5619 31.325 24.5619C32.8736 24.5619 34.0152 23.4116 34.1244 21.9587H33.6002H33.5983Z" fill="#CCCCCC"/>
<path d="M12.3126 20.9437H6.21544L7.86928 19.2858L6.73561 18.1514L3.17578 21.7199L3.19961 21.7458L3.17578 21.7697L6.73561 25.3402L7.86928 24.2058L6.21544 22.5479H12.3126V20.9437Z" fill="#CCCCCC"/>
<path d="M15.1719 20.9437H21.271L19.6172 19.2858L20.7489 18.1514L24.3107 21.7199L24.2849 21.7458L24.3107 21.7697L20.7489 25.3402L19.6172 24.2058L21.271 22.5479H15.1719V20.9437Z" fill="#CCCCCC"/>
<path d="M80.7417 8.10248H79.205V6.56201H78.2262V8.10248H76.6875V9.08368H78.2262V10.6241H79.205V9.08368H80.7417V8.10248Z" fill="#B3B3B3"/>
<path d="M72.3738 9.26863L71.6988 8.59393L72.3738 7.91724L71.943 7.48535L71.2679 8.16204L70.5929 7.48535L70.1641 7.91724L70.8391 8.59393L70.1641 9.26863L70.5929 9.70052L71.2679 9.02383L71.943 9.70052L72.3738 9.26863Z" fill="#CCCCCC"/>
<path d="M121.913 102.99V110.392H119.993V102.99H121.913Z" fill="#DC2626"/>
<path d="M123.293 105.355H125.066V105.994C125.308 105.699 125.552 105.502 125.801 105.401C126.049 105.299 126.339 105.249 126.672 105.249C127.026 105.249 127.327 105.307 127.578 105.42C127.83 105.536 128.042 105.697 128.219 105.906C128.362 106.077 128.461 106.266 128.513 106.475C128.564 106.684 128.59 106.923 128.59 107.192V110.392H126.817V107.849C126.817 107.6 126.799 107.399 126.763 107.246C126.728 107.092 126.664 106.969 126.573 106.877C126.495 106.8 126.406 106.744 126.309 106.71C126.212 106.678 126.106 106.66 125.995 106.66C125.695 106.66 125.465 106.75 125.304 106.931C125.143 107.112 125.064 107.369 125.064 107.701V110.392H123.291V105.357L123.293 105.355Z" fill="#DC2626"/>
<path d="M131.775 106.837V110.392H130.002V106.837H129.414V105.355H130.002V103.842H131.775V105.355H132.783V106.837H131.775Z" fill="#DC2626"/>
<path d="M135.143 108.173C135.143 108.939 135.503 109.321 136.221 109.321C136.607 109.321 136.896 109.164 137.093 108.849H138.806C138.461 110.002 137.595 110.577 136.212 110.577C135.787 110.577 135.399 110.513 135.046 110.386C134.693 110.259 134.391 110.077 134.141 109.841C133.889 109.606 133.696 109.323 133.559 108.997C133.422 108.67 133.353 108.302 133.353 107.898C133.353 107.494 133.418 107.102 133.549 106.764C133.68 106.427 133.865 106.141 134.107 105.904C134.349 105.669 134.641 105.486 134.983 105.359C135.326 105.231 135.711 105.167 136.144 105.167C136.577 105.167 136.95 105.231 137.29 105.359C137.629 105.486 137.917 105.671 138.151 105.914C138.386 106.157 138.566 106.453 138.689 106.801C138.812 107.152 138.876 107.546 138.876 107.984V108.171H135.145L135.143 108.173ZM137.22 107.142C137.161 106.893 137.041 106.694 136.857 106.543C136.674 106.391 136.452 106.318 136.192 106.318C135.918 106.318 135.693 106.39 135.521 106.533C135.348 106.676 135.239 106.879 135.193 107.142H137.22Z" fill="#DC2626"/>
<path d="M139.883 105.355H141.656V106.179C141.844 105.878 142.077 105.647 142.351 105.486C142.625 105.325 142.944 105.245 143.31 105.245H143.461C143.516 105.245 143.58 105.251 143.651 105.265V106.963C143.417 106.845 143.161 106.786 142.887 106.786C142.476 106.786 142.166 106.909 141.962 107.154C141.755 107.399 141.654 107.757 141.654 108.229V110.388H139.881V105.353L139.883 105.355Z" fill="#DC2626"/>
<path d="M144.445 105.355H146.218V105.994C146.461 105.699 146.705 105.502 146.953 105.401C147.201 105.299 147.491 105.249 147.824 105.249C148.178 105.249 148.48 105.307 148.73 105.42C148.982 105.536 149.194 105.697 149.371 105.906C149.514 106.077 149.613 106.266 149.665 106.475C149.717 106.684 149.742 106.923 149.742 107.192V110.392H147.969V107.849C147.969 107.6 147.952 107.399 147.916 107.246C147.88 107.092 147.817 106.969 147.725 106.877C147.648 106.8 147.558 106.744 147.461 106.71C147.364 106.678 147.259 106.66 147.147 106.66C146.848 106.66 146.617 106.75 146.457 106.931C146.296 107.112 146.216 107.369 146.216 107.701V110.392H144.443V105.357L144.445 105.355Z" fill="#DC2626"/>
<path d="M154.827 105.355H156.61V110.39H154.827V109.831C154.448 110.309 153.936 110.547 153.29 110.547C152.925 110.547 152.587 110.48 152.282 110.346C151.974 110.213 151.708 110.024 151.48 109.781C151.251 109.538 151.073 109.254 150.945 108.927C150.818 108.601 150.755 108.243 150.755 107.857C150.755 107.496 150.816 107.154 150.942 106.832C151.065 106.507 151.239 106.225 151.46 105.982C151.682 105.739 151.946 105.548 152.254 105.407C152.562 105.265 152.901 105.196 153.272 105.196C153.9 105.196 154.418 105.414 154.829 105.852V105.351L154.827 105.355ZM152.593 107.859C152.593 108.022 152.623 108.175 152.681 108.314C152.74 108.456 152.82 108.577 152.921 108.682C153.022 108.788 153.143 108.87 153.284 108.927C153.425 108.987 153.576 109.015 153.739 109.015C153.902 109.015 154.045 108.985 154.184 108.927C154.325 108.868 154.444 108.786 154.545 108.682C154.646 108.577 154.728 108.458 154.789 108.318C154.851 108.181 154.883 108.034 154.883 107.876C154.883 107.719 154.851 107.57 154.789 107.431C154.728 107.289 154.646 107.168 154.545 107.062C154.444 106.957 154.323 106.875 154.184 106.818C154.043 106.758 153.894 106.73 153.739 106.73C153.584 106.73 153.423 106.76 153.284 106.818C153.143 106.877 153.022 106.959 152.921 107.062C152.82 107.168 152.74 107.287 152.681 107.421C152.621 107.554 152.593 107.701 152.593 107.859Z" fill="#DC2626"/>
<path d="M159.586 102.244V110.392H157.813V102.244H159.586Z" fill="#DC2626"/>
<path d="M168.352 104.885C168.143 104.716 167.935 104.588 167.724 104.507C167.516 104.425 167.313 104.383 167.117 104.383C166.869 104.383 166.666 104.443 166.509 104.561C166.352 104.678 166.275 104.831 166.275 105.022C166.275 105.154 166.315 105.261 166.392 105.347C166.469 105.432 166.573 105.506 166.7 105.568C166.827 105.629 166.97 105.683 167.131 105.729C167.291 105.775 167.448 105.824 167.605 105.876C168.233 106.085 168.691 106.366 168.981 106.716C169.271 107.066 169.416 107.522 169.416 108.085C169.416 108.465 169.352 108.808 169.225 109.116C169.098 109.425 168.912 109.687 168.667 109.906C168.423 110.125 168.121 110.296 167.766 110.418C167.411 110.539 167.008 110.599 166.557 110.599C165.624 110.599 164.758 110.32 163.962 109.765L164.784 108.215C165.072 108.469 165.356 108.66 165.636 108.784C165.916 108.907 166.194 108.971 166.467 108.971C166.781 108.971 167.013 108.899 167.168 108.754C167.321 108.611 167.399 108.446 167.399 108.262C167.399 108.151 167.379 108.055 167.339 107.972C167.299 107.89 167.234 107.815 167.143 107.747C167.051 107.677 166.932 107.614 166.785 107.556C166.638 107.496 166.46 107.432 166.251 107.359C166.003 107.281 165.761 107.194 165.522 107.098C165.284 107.003 165.072 106.877 164.885 106.72C164.698 106.563 164.55 106.366 164.434 106.127C164.319 105.888 164.264 105.585 164.264 105.219C164.264 104.853 164.323 104.521 164.444 104.222C164.565 103.924 164.734 103.669 164.955 103.456C165.173 103.243 165.441 103.078 165.757 102.96C166.072 102.843 166.428 102.783 166.819 102.783C167.184 102.783 167.565 102.835 167.964 102.934C168.364 103.036 168.745 103.185 169.11 103.38L168.346 104.883L168.352 104.885Z" fill="#DC2626"/>
<path d="M172.053 108.173C172.053 108.939 172.412 109.321 173.131 109.321C173.516 109.321 173.806 109.164 174.002 108.849H175.716C175.37 110.002 174.505 110.577 173.121 110.577C172.696 110.577 172.309 110.513 171.955 110.386C171.602 110.259 171.3 110.077 171.05 109.841C170.798 109.606 170.605 109.323 170.468 108.997C170.331 108.67 170.262 108.302 170.262 107.898C170.262 107.494 170.327 107.102 170.458 106.764C170.589 106.427 170.774 106.141 171.016 105.904C171.258 105.669 171.55 105.486 171.892 105.359C172.235 105.231 172.62 105.167 173.053 105.167C173.486 105.167 173.859 105.231 174.199 105.359C174.538 105.486 174.826 105.671 175.06 105.914C175.295 106.157 175.475 106.453 175.598 106.801C175.722 107.152 175.785 107.546 175.785 107.984V108.171H172.055L172.053 108.173ZM174.129 107.142C174.07 106.893 173.951 106.694 173.766 106.543C173.583 106.391 173.361 106.318 173.101 106.318C172.827 106.318 172.603 106.39 172.43 106.533C172.257 106.676 172.148 106.879 172.102 107.142H174.129Z" fill="#DC2626"/>
<path d="M176.794 105.355H178.567V106.179C178.756 105.878 178.988 105.647 179.262 105.486C179.536 105.325 179.855 105.245 180.221 105.245H180.372C180.427 105.245 180.491 105.251 180.562 105.265V106.963C180.328 106.845 180.072 106.786 179.798 106.786C179.387 106.786 179.077 106.909 178.873 107.154C178.666 107.399 178.565 107.757 178.565 108.229V110.388H176.792V105.353L176.794 105.355Z" fill="#DC2626"/>
<path d="M183.052 105.355L184.247 107.936L185.462 105.355H187.44L184.825 110.39H183.64L181.055 105.355H183.052Z" fill="#DC2626"/>
<path d="M189.407 108.173C189.407 108.939 189.766 109.321 190.485 109.321C190.87 109.321 191.16 109.164 191.357 108.849H193.07C192.725 110.002 191.859 110.577 190.475 110.577C190.05 110.577 189.663 110.513 189.31 110.386C188.956 110.259 188.655 110.077 188.404 109.841C188.152 109.606 187.96 109.323 187.823 108.997C187.686 108.67 187.616 108.302 187.616 107.898C187.616 107.494 187.682 107.102 187.813 106.764C187.944 106.427 188.128 106.141 188.371 105.904C188.613 105.669 188.905 105.486 189.246 105.359C189.59 105.231 189.975 105.167 190.408 105.167C190.84 105.167 191.214 105.231 191.553 105.359C191.893 105.486 192.181 105.671 192.415 105.914C192.649 106.157 192.83 106.453 192.953 106.801C193.076 107.152 193.14 107.546 193.14 107.984V108.171H189.409L189.407 108.173ZM191.484 107.142C191.424 106.893 191.305 106.694 191.12 106.543C190.938 106.391 190.715 106.318 190.455 106.318C190.181 106.318 189.957 106.39 189.784 106.533C189.612 106.676 189.502 106.879 189.457 107.142H191.484Z" fill="#DC2626"/>
<path d="M194.147 105.355H195.919V106.179C196.108 105.878 196.34 105.647 196.614 105.486C196.888 105.325 197.208 105.245 197.573 105.245H197.724C197.78 105.245 197.843 105.251 197.915 105.265V106.963C197.681 106.845 197.424 106.786 197.15 106.786C196.739 106.786 196.43 106.909 196.225 107.154C196.019 107.399 195.917 107.757 195.917 108.229V110.388H194.145V105.353L194.147 105.355Z" fill="#DC2626"/>
<path d="M206.398 104.618H204.117V105.854H206.271V107.484H204.117V108.76H206.398V110.39H202.197V102.988H206.398V104.618Z" fill="#DC2626"/>
<path d="M207.613 105.355H209.386V106.179C209.575 105.878 209.807 105.647 210.081 105.486C210.355 105.325 210.675 105.245 211.04 105.245H211.191C211.247 105.245 211.31 105.251 211.382 105.265V106.963C211.147 106.845 210.891 106.786 210.617 106.786C210.206 106.786 209.897 106.909 209.692 107.154C209.486 107.399 209.384 107.757 209.384 108.229V110.388H207.611V105.353L207.613 105.355Z" fill="#DC2626"/>
<path d="M212.176 105.355H213.949V106.179C214.137 105.878 214.37 105.647 214.644 105.486C214.918 105.325 215.237 105.245 215.603 105.245H215.754C215.809 105.245 215.873 105.251 215.944 105.265V106.963C215.71 106.845 215.454 106.786 215.18 106.786C214.769 106.786 214.459 106.909 214.255 107.154C214.048 107.399 213.947 107.757 213.947 108.229V110.388H212.174V105.353L212.176 105.355Z" fill="#DC2626"/>
<path d="M216.583 107.828C216.583 107.456 216.658 107.106 216.807 106.784C216.958 106.459 217.167 106.179 217.435 105.94C217.703 105.701 218.02 105.512 218.39 105.374C218.759 105.237 219.162 105.167 219.599 105.167C220.036 105.167 220.429 105.235 220.798 105.368C221.167 105.502 221.487 105.689 221.757 105.928C222.027 106.167 222.237 106.451 222.388 106.782C222.539 107.112 222.613 107.476 222.613 107.876C222.613 108.276 222.535 108.64 222.382 108.971C222.23 109.301 222.019 109.586 221.751 109.825C221.483 110.064 221.161 110.249 220.786 110.38C220.411 110.511 220.004 110.577 219.567 110.577C219.13 110.577 218.737 110.511 218.372 110.38C218.007 110.249 217.691 110.064 217.427 109.821C217.163 109.578 216.954 109.289 216.805 108.951C216.655 108.615 216.581 108.238 216.581 107.826L216.583 107.828ZM218.453 107.848C218.453 108.02 218.485 108.175 218.547 108.314C218.608 108.455 218.69 108.577 218.791 108.682C218.892 108.788 219.013 108.869 219.154 108.927C219.295 108.987 219.442 109.015 219.599 109.015C219.756 109.015 219.905 108.985 220.044 108.927C220.185 108.867 220.304 108.786 220.407 108.682C220.508 108.577 220.59 108.455 220.651 108.314C220.713 108.173 220.744 108.022 220.744 107.858C220.744 107.695 220.713 107.552 220.651 107.412C220.59 107.271 220.508 107.15 220.407 107.044C220.306 106.939 220.185 106.857 220.044 106.8C219.903 106.74 219.754 106.712 219.599 106.712C219.444 106.712 219.293 106.742 219.154 106.8C219.013 106.859 218.892 106.941 218.791 107.044C218.69 107.15 218.608 107.269 218.547 107.409C218.485 107.546 218.453 107.693 218.453 107.85V107.848Z" fill="#DC2626"/>
<path d="M223.633 105.355H225.406V106.179C225.594 105.878 225.827 105.647 226.101 105.486C226.375 105.325 226.694 105.245 227.06 105.245H227.211C227.266 105.245 227.33 105.251 227.401 105.265V106.963C227.167 106.845 226.911 106.786 226.637 106.786C226.226 106.786 225.916 106.909 225.712 107.154C225.505 107.399 225.404 107.757 225.404 108.229V110.388H223.631V105.353L223.633 105.355Z" fill="#DC2626"/>
<path d="M149.518 67.3465H136.26L135.599 71.5738C136.208 71.5062 136.766 71.4465 137.274 71.3947C137.783 71.343 138.307 71.3191 138.849 71.3191C140.779 71.3191 142.573 71.6594 144.233 72.3381C145.893 73.0168 147.315 73.9502 148.5 75.1384C149.685 76.3266 150.616 77.7536 151.293 79.4155C151.97 81.0794 152.31 82.8965 152.31 84.8648C152.31 86.9367 151.929 88.8036 151.166 90.4675C150.404 92.1313 149.328 93.5484 147.94 94.7187C146.55 95.8889 144.859 96.7905 142.859 97.4175C140.86 98.0444 138.642 98.3589 136.204 98.3589C133.901 98.3589 131.709 98.0782 129.627 97.519C127.544 96.9597 125.588 96.1019 123.76 94.9475L125.233 85.5774C126.926 87.0382 128.654 88.1488 130.415 88.9131C132.176 89.6773 133.852 90.0594 135.444 90.0594C137.475 90.0594 139.083 89.5081 140.27 88.4035C141.456 87.3009 142.049 85.9336 142.049 84.3036C142.049 82.4029 141.253 80.8664 139.661 79.6941C138.069 78.5219 135.986 77.9367 133.413 77.9367C132.261 77.9367 131.076 78.0641 129.857 78.3189C128.638 78.5736 127.435 78.9736 126.249 79.515L129.45 58.8918H149.516V67.3445L149.518 67.3465Z" fill="#DC2626"/>
<path d="M156.63 78.0403C156.63 74.9853 157.027 72.2089 157.823 69.715C158.619 67.2192 159.735 65.0897 161.176 63.3243C162.616 61.5589 164.325 60.1916 166.307 59.2243C168.288 58.2571 170.48 57.7734 172.884 57.7734C175.289 57.7734 177.439 58.2571 179.438 59.2243C181.436 60.1916 183.147 61.5589 184.568 63.3243C185.99 65.0897 187.1 67.2192 187.896 69.715C188.692 72.2108 189.089 74.9853 189.089 78.0403C189.089 81.0954 188.69 83.8718 187.896 86.3656C187.1 88.8614 185.992 90.999 184.568 92.7823C183.147 94.5655 181.436 95.9388 179.438 96.9081C177.439 97.8753 175.255 98.359 172.884 98.359C170.514 98.359 168.286 97.8753 166.307 96.9081C164.325 95.9408 162.616 94.5655 161.176 92.7823C159.737 90.999 158.619 88.8614 157.823 86.3656C157.027 83.8698 156.63 81.0954 156.63 78.0403ZM166.485 78.0403C166.485 79.738 166.638 81.2825 166.942 82.6737C167.248 84.0669 167.679 85.271 168.239 86.29C168.796 87.309 169.466 88.0972 170.246 88.6584C171.024 89.2177 171.906 89.4983 172.888 89.4983C173.871 89.4983 174.709 89.2177 175.505 88.6584C176.301 88.0991 176.97 87.309 177.512 86.29C178.054 85.271 178.477 84.0669 178.783 82.6737C179.089 81.2825 179.24 79.738 179.24 78.0403C179.24 76.3426 179.087 74.84 178.783 73.4309C178.477 72.0218 178.054 70.8177 177.512 69.8146C176.97 68.8135 176.301 68.0313 175.505 67.472C174.709 66.9128 173.837 66.6321 172.888 66.6321C171.939 66.6321 171.026 66.9128 170.246 67.472C169.466 68.0313 168.798 68.8135 168.239 69.8146C167.681 70.8157 167.248 72.0218 166.942 73.4309C166.638 74.84 166.485 76.3765 166.485 78.0403Z" fill="#DC2626"/>
<path d="M191.174 78.0403C191.174 74.9853 191.571 72.2089 192.367 69.715C193.163 67.2192 194.279 65.0897 195.72 63.3243C197.16 61.5589 198.869 60.1916 200.851 59.2243C202.832 58.2571 205.024 57.7734 207.428 57.7734C209.833 57.7734 211.983 58.2571 213.982 59.2243C215.979 60.1916 217.691 61.5589 219.112 63.3243C220.534 65.0897 221.644 67.2192 222.44 69.715C223.236 72.2108 223.633 74.9853 223.633 78.0403C223.633 81.0954 223.234 83.8718 222.44 86.3656C221.644 88.8614 220.536 90.999 219.112 92.7823C217.691 94.5655 215.979 95.9388 213.982 96.9081C211.983 97.8753 209.799 98.359 207.428 98.359C205.058 98.359 202.83 97.8753 200.851 96.9081C198.869 95.9408 197.16 94.5655 195.72 92.7823C194.281 90.999 193.163 88.8614 192.367 86.3656C191.571 83.8698 191.174 81.0954 191.174 78.0403ZM201.029 78.0403C201.029 79.738 201.182 81.2825 201.486 82.6737C201.792 84.0669 202.223 85.271 202.783 86.29C203.34 87.309 204.009 88.0972 204.79 88.6584C205.568 89.2177 206.45 89.4983 207.432 89.4983C208.415 89.4983 209.253 89.2177 210.049 88.6584C210.845 88.0991 211.514 87.309 212.056 86.29C212.598 85.271 213.021 84.0669 213.327 82.6737C213.633 81.2825 213.784 79.738 213.784 78.0403C213.784 76.3426 213.631 74.84 213.327 73.4309C213.021 72.0218 212.598 70.8177 212.056 69.8146C211.514 68.8135 210.845 68.0313 210.049 67.472C209.253 66.9128 208.381 66.6321 207.432 66.6321C206.483 66.6321 205.57 66.9128 204.79 67.472C204.009 68.0313 203.342 68.8135 202.783 69.8146C202.225 70.8157 201.792 72.0218 201.486 73.4309C201.182 74.84 201.029 76.3765 201.029 78.0403Z" fill="#DC2626"/>
<path d="M90.7407 130.372L25.5956 130.303C23.6082 130.301 22 128.685 22 126.692L22.0477 41.6064C22.0477 39.6101 23.6677 37.994 25.6591 38L90.8042 38.209C92.7876 38.215 94.3938 39.8291 94.3918 41.8193L94.3442 126.768C94.3442 128.762 92.7301 130.376 90.7407 130.374V130.372Z" fill="#0C5C5C"/>
<path d="M86.0769 124.256L30.293 124.167V122.857L86.0769 122.947V124.256Z" fill="#073F3F"/>
<path d="M86.0808 115.531L30.2988 115.431V114.12L86.0808 114.223V115.531Z" fill="#073F3F"/>
<path d="M53.8594 118.092L86.0786 118.148L86.0766 121.639L53.8574 121.585L53.8594 118.092Z" fill="#0C939D"/>
<path d="M53.8594 117.463L86.0805 117.521V116.954L53.8594 116.898V117.463Z" fill="#0C939D"/>
<path d="M36.1006 117.432L40.0873 117.44V116.872L36.1006 116.866V117.432Z" fill="#0C939D"/>
<path d="M41.8994 117.442L45.8861 117.45L45.8881 116.882L41.8994 116.876V117.442Z" fill="#0C939D"/>
<path d="M30.2969 117.422L34.2856 117.43V116.862L30.2969 116.856V117.422Z" fill="#0C939D"/>
<path d="M45.8863 118.078L30.2969 118.052L30.2949 121.545L45.8843 121.571L45.8863 118.078Z" fill="#0C939D"/>
<path d="M51.3225 118.088L48.4239 118.083L48.4219 121.575L51.3206 121.581L51.3225 118.088Z" fill="white"/>
<path d="M86.0808 115.531L30.2988 115.431V114.12L86.0808 114.223V115.531Z" fill="#073F3F"/>
<path d="M86.0867 106.808L30.3027 106.696V105.385L86.0867 105.498V106.808Z" fill="#073F3F"/>
<path d="M53.8633 109.361L86.0845 109.425L86.0825 112.914L53.8613 112.854L53.8633 109.361Z" fill="#0C939D"/>
<path d="M53.8633 108.732L86.0844 108.796V108.229L53.8633 108.167V108.732Z" fill="#0C939D"/>
<path d="M36.1045 108.698L40.0932 108.706V108.139L36.1045 108.131V108.698Z" fill="#0C939D"/>
<path d="M41.9053 108.708L45.892 108.716V108.151L41.9053 108.143V108.708Z" fill="#0C939D"/>
<path d="M30.3008 108.686L34.2914 108.694V108.127L30.3028 108.119L30.3008 108.686Z" fill="#0C939D"/>
<path d="M45.8922 109.347L30.3008 109.315L30.2988 112.81L45.8902 112.84L45.8922 109.347Z" fill="#0C939D"/>
<path d="M51.3284 109.357L48.4278 109.351L48.4258 112.844L51.3265 112.85L51.3284 109.357Z" fill="white"/>
<path d="M86.0867 106.808L30.3027 106.696V105.385L86.0867 105.498V106.808Z" fill="#073F3F"/>
<path d="M86.0905 98.0824L30.3086 97.959V96.6494L86.0905 96.7728V98.0824Z" fill="#073F3F"/>
<path d="M53.8692 100.63L86.0883 100.7L86.0863 104.19L53.8672 104.123L53.8692 100.63Z" fill="#0C939D"/>
<path d="M53.8691 100.001L86.0903 100.071V99.5054L53.8691 99.4358V100.001Z" fill="#0C939D"/>
<path d="M36.1084 99.9632L40.0971 99.9712V99.4059L36.1104 99.396L36.1084 99.9632Z" fill="#0C939D"/>
<path d="M41.9092 99.9751L45.8959 99.9851L45.8979 99.4179L41.9092 99.4099V99.9751Z" fill="#0C939D"/>
<path d="M30.3066 99.9513L34.2953 99.9592V99.392L30.3066 99.384V99.9513Z" fill="#0C939D"/>
<path d="M45.8961 100.614L30.3067 100.58L30.3047 104.075L45.8941 104.107L45.8961 100.614Z" fill="#0C939D"/>
<path d="M51.3323 100.626L48.4336 100.62L48.4316 104.113L51.3303 104.119L51.3323 100.626Z" fill="white"/>
<path d="M86.0905 98.0824L30.3086 97.959V96.6494L86.0905 96.7728V98.0824Z" fill="#073F3F"/>
<path d="M86.0964 89.357L30.3125 89.2237V87.9141L86.0964 88.0494V89.357Z" fill="#073F3F"/>
<path d="M53.8731 91.9006L86.0942 91.9743L86.0922 95.4652L53.8711 95.3916L53.8731 91.9006Z" fill="#0C939D"/>
<path d="M53.873 91.2696L86.0942 91.3472V90.78L53.873 90.7043V91.2696Z" fill="#0C939D"/>
<path d="M36.1143 91.2278L40.1029 91.2378V90.6706L36.1143 90.6626V91.2278Z" fill="#0C939D"/>
<path d="M41.915 91.2417L45.9017 91.2517V90.6845L41.915 90.6765V91.2417Z" fill="#0C939D"/>
<path d="M30.3105 91.2159L34.3012 91.2239V90.6586L30.3125 90.6487L30.3105 91.2159Z" fill="#0C939D"/>
<path d="M45.902 91.8805L30.3106 91.8447L30.3086 95.3396L45.9 95.3735L45.902 91.8805Z" fill="#0C939D"/>
<path d="M51.3382 91.8947L48.4375 91.8867L48.4355 95.3796L51.3362 95.3856L51.3382 91.8947Z" fill="white"/>
<path d="M86.0964 89.357L30.3125 89.2237V87.9141L86.0964 88.0494V89.357Z" fill="#073F3F"/>
<path d="M86.1003 80.6336L30.3184 80.4883V79.1768L86.1003 79.324V80.6336Z" fill="#073F3F"/>
<path d="M53.8789 83.1692L86.0981 83.2508L86.0961 86.7397L53.877 86.6601L53.8789 83.1692Z" fill="#0C939D"/>
<path d="M53.8789 82.5404L86.0981 82.622L86.1 82.0567L53.8789 81.9731V82.5404Z" fill="#0C939D"/>
<path d="M36.1182 82.4945L40.1068 82.5044V81.9372L36.1201 81.9272L36.1182 82.4945Z" fill="#0C939D"/>
<path d="M41.9189 82.5083L45.9056 82.5183L45.9076 81.9531L41.9189 81.9431V82.5083Z" fill="#0C939D"/>
<path d="M30.3164 82.4786L34.3051 82.4885V81.9233L30.3164 81.9133V82.4786Z" fill="#0C939D"/>
<path d="M45.9058 83.1492L30.3164 83.1094L30.3145 86.6023L45.9039 86.6421L45.9058 83.1492Z" fill="#0C939D"/>
<path d="M51.3421 83.1613L48.4434 83.1553L48.4414 86.6482L51.3401 86.6542L51.3421 83.1613Z" fill="white"/>
<path d="M86.1003 80.6336L30.3184 80.4883V79.1768L86.1003 79.324V80.6336Z" fill="#073F3F"/>
<path d="M86.1062 71.9082L30.3223 71.753V70.4414L86.1062 70.6006V71.9082Z" fill="#073F3F"/>
<path d="M53.8828 74.4377L86.104 74.5253L86.102 78.0162L53.8809 77.9307L53.8828 74.4377Z" fill="#0C939D"/>
<path d="M53.8828 73.8089L86.104 73.8965V73.3313L53.8828 73.2417V73.8089Z" fill="#0C939D"/>
<path d="M36.124 73.7591L40.1127 73.7711V73.2038L36.124 73.1919V73.7591Z" fill="#0C939D"/>
<path d="M41.9248 73.775L45.9115 73.7869V73.2197L41.9248 73.2078V73.775Z" fill="#0C939D"/>
<path d="M30.3203 73.7433L34.311 73.7552V73.188L30.3223 73.176L30.3203 73.7433Z" fill="#0C939D"/>
<path d="M45.9117 74.4159L30.3203 74.3721L30.3184 77.867L45.9097 77.9088L45.9117 74.4159Z" fill="#0C939D"/>
<path d="M51.348 74.4298L48.4473 74.4219L48.4453 77.9148L51.346 77.9228L51.348 74.4298Z" fill="white"/>
<path d="M86.1062 71.9085L30.3223 71.7532V70.4417L86.1062 70.6009V71.9085Z" fill="#073F3F"/>
<path d="M86.1101 63.1851L30.3281 63.0159V61.7063L86.1101 61.8755V63.1851Z" fill="#073F3F"/>
<path d="M53.8887 65.7068L86.1079 65.8023L86.1059 69.2913L53.8867 69.1997L53.8887 65.7068Z" fill="#0C939D"/>
<path d="M53.8887 65.0777L86.1078 65.1733L86.1098 64.606L53.8887 64.5105V65.0777Z" fill="#0C939D"/>
<path d="M36.1279 65.024L40.1166 65.0359V64.4707L36.1299 64.4587L36.1279 65.024Z" fill="#0C939D"/>
<path d="M41.9287 65.0421L45.9154 65.054L45.9174 64.4868L41.9287 64.4749V65.0421Z" fill="#0C939D"/>
<path d="M30.3262 65.0081L34.3148 65.0201V64.4529L30.3262 64.4409V65.0081Z" fill="#0C939D"/>
<path d="M45.9156 65.6827L30.3262 65.637L30.3242 69.1319L45.9136 69.1757L45.9156 65.6827Z" fill="#0C939D"/>
<path d="M51.3518 65.6989L48.4532 65.6909L48.4512 69.1838L51.3499 69.1918L51.3518 65.6989Z" fill="white"/>
<path d="M86.111 63.1851L30.3291 63.0159V61.7063L86.111 61.8755V63.1851Z" fill="#073F3F"/>
<path d="M86.1149 54.4597L30.333 54.2805V52.9709L86.1169 53.1501L86.1149 54.4597Z" fill="#073F3F"/>
<path d="M53.8936 56.9753L86.1147 57.0768L86.1127 60.5658L53.8916 60.4683L53.8936 56.9753Z" fill="#0C939D"/>
<path d="M53.8936 56.3465L86.1147 56.448V55.8828L53.8936 55.7793V56.3465Z" fill="#0C939D"/>
<path d="M36.1348 56.2906L40.1234 56.3026V55.7353L36.1348 55.7234V56.2906Z" fill="#0C939D"/>
<path d="M41.9355 56.3087L45.9222 56.3206V55.7554L41.9355 55.7415V56.3087Z" fill="#0C939D"/>
<path d="M30.3311 56.2728L34.3217 56.2847V55.7175L30.333 55.7056L30.3311 56.2728Z" fill="#0C939D"/>
<path d="M45.9225 56.9494L30.3311 56.9016L30.3291 60.3965L45.9205 60.4443L45.9225 56.9494Z" fill="#0C939D"/>
<path d="M51.3587 56.9675L48.458 56.9575L48.4561 60.4504L51.3567 60.4604L51.3587 56.9675Z" fill="white"/>
<path d="M86.1149 54.4597L30.333 54.2805V52.9709L86.1169 53.1501L86.1149 54.4597Z" fill="#073F3F"/>
<path d="M86.1208 45.7343L30.3369 45.5452L30.3389 44.2336L86.1208 44.4267V45.7343Z" fill="#073F3F"/>
<path d="M53.8975 48.2439L86.1186 48.3514L86.1166 51.8423L53.8955 51.7368L53.8975 48.2439Z" fill="#0C939D"/>
<path d="M53.8994 47.615L86.1186 47.7245L86.1206 47.1573L53.8994 47.0498V47.615Z" fill="#0C939D"/>
<path d="M36.1387 47.5553L40.1274 47.5692V47.002L36.1407 46.988L36.1387 47.5553Z" fill="#0C939D"/>
<path d="M41.9395 47.5753L45.9261 47.5892V47.022L41.9395 47.0081V47.5753Z" fill="#0C939D"/>
<path d="M30.3369 47.5355L34.3256 47.5494V46.9822L30.3369 46.9702V47.5355Z" fill="#0C939D"/>
<path d="M45.9263 48.218L30.3369 48.1663L30.335 51.6592L45.9244 51.7109L45.9263 48.218Z" fill="#0C939D"/>
<path d="M51.3626 48.236L48.4639 48.2261L48.4619 51.719L51.3606 51.7289L51.3626 48.236Z" fill="white"/>
<g opacity="0.2">
<path d="M62.9649 104.737C64.2534 106.974 66.5605 108.31 69.1375 108.31H105.905C108.482 108.31 110.789 106.974 112.078 104.737C112.721 103.619 113.045 102.393 113.045 101.165V99.063C113.045 97.835 112.723 96.609 112.078 95.4905L93.695 63.5725C92.5316 61.5504 90.5342 60.2647 88.259 60.0358C88.0167 60.0119 87.7706 60 87.5224 60C84.9453 60 82.6383 61.3355 81.3498 63.5725L62.9669 95.4905C62.3236 96.609 62.002 97.835 62 99.061V101.161V101.165C62 102.391 62.3216 103.619 62.9669 104.737H62.9649Z" fill="#010000"/>
</g>
<path d="M67.7797 107.289C65.2026 107.289 62.8955 105.954 61.607 103.717C60.3185 101.48 60.3185 98.8086 61.607 96.5715L79.9899 64.6536C81.2784 62.4165 83.5855 61.0811 86.1625 61.0811C88.7396 61.0811 91.0466 62.4165 92.3351 64.6536L110.718 96.5715C112.007 98.8086 112.007 101.48 110.718 103.717C109.429 105.954 107.122 107.289 104.545 107.289H67.7797Z" fill="url(#paint0_linear_88_3267)"/>
<path d="M82.9266 66.3533C84.3661 63.8555 87.9616 63.8555 89.3991 66.3533L98.5915 82.3133L107.784 98.2732C109.223 100.771 107.425 103.894 104.548 103.894H67.782C64.9051 103.894 63.1064 100.771 64.5458 98.2732L73.7382 82.3133L82.9306 66.3533H82.9266Z" fill="url(#paint1_linear_88_3267)"/>
<path d="M84.5722 88.1149L84.1096 81.1689C84.0222 79.8155 83.9785 78.8443 83.9785 78.2551C83.9785 77.4531 84.189 76.8261 84.6079 76.3783C85.0268 75.9285 85.5788 75.7036 86.2637 75.7036C87.0936 75.7036 87.6475 75.9922 87.9275 76.5654C88.2074 77.1406 88.3464 77.9685 88.3464 79.0512C88.3464 79.6901 88.3127 80.337 88.2452 80.9937L87.6237 88.1428C87.5562 88.9926 87.4113 89.6454 87.1889 90.0992C86.9666 90.553 86.6012 90.7799 86.089 90.7799C85.5768 90.7799 85.2075 90.561 85.005 90.1211C84.8025 89.6813 84.6575 89.0125 84.5702 88.1129L84.5722 88.1149ZM86.1783 97.6563C85.5907 97.6563 85.0764 97.4652 84.6377 97.0831C84.1989 96.7009 83.9805 96.1676 83.9805 95.4809C83.9805 94.8818 84.191 94.3723 84.6099 93.9504C85.0288 93.5304 85.543 93.3195 86.1505 93.3195C86.7581 93.3195 87.2763 93.5304 87.7051 93.9504C88.134 94.3703 88.3484 94.8798 88.3484 95.4809C88.3484 96.1576 88.132 96.689 87.6972 97.0751C87.2624 97.4612 86.7561 97.6543 86.1783 97.6543V97.6563Z" fill="#603813"/>
<defs>
<linearGradient id="paint0_linear_88_3267" x1="86.1625" y1="60.0023" x2="86.1625" y2="109.021" gradientUnits="userSpaceOnUse">
<stop stop-color="#FFD03F"/>
<stop offset="0.2" stop-color="#FCC939"/>
<stop offset="0.46" stop-color="#F5B82A"/>
<stop offset="0.77" stop-color="#EA9C12"/>
<stop offset="0.9" stop-color="#E58E06"/>
<stop offset="1" stop-color="#DF8800"/>
</linearGradient>
<linearGradient id="paint1_linear_88_3267" x1="85.9385" y1="63.4635" x2="86.1959" y2="105.426" gradientUnits="userSpaceOnUse">
<stop stop-color="#DF8800"/>
<stop offset="0.1" stop-color="#E58E06"/>
<stop offset="0.23" stop-color="#EA9C12"/>
<stop offset="0.54" stop-color="#F5B82A"/>
<stop offset="0.8" stop-color="#FCC939"/>
<stop offset="1" stop-color="#FFD03F"/>
</linearGradient>
</defs>
</svg>
