<svg width="50" height="50" viewBox="0 0 50 50" fill="none" xmlns="http://www.w3.org/2000/svg">
<rect width="50" height="50" rx="4" fill="#B1EAED"/>
<path fill-rule="evenodd" clip-rule="evenodd" d="M25.6046 12.5C27.0208 12.5 34.4521 15.0512 35.4358 16.035C36.2558 16.855 36.2433 17.5175 36.1858 20.6925C36.1633 21.965 36.1321 23.6987 36.1321 26.0987C36.1321 34.7013 26.2946 37.7787 25.8758 37.905C25.7871 37.9325 25.6958 37.945 25.6046 37.945C25.5133 37.945 25.4221 37.9325 25.3333 37.905C24.9146 37.7787 15.0771 34.7013 15.0771 26.0987C15.0771 23.7025 15.0458 21.9688 15.0233 20.6962C15.0131 20.1286 15.0042 19.6412 15.0013 19.2188L15.001 18.7422C15.0117 17.1764 15.1587 16.65 15.7746 16.035C16.7558 15.0512 24.1871 12.5 25.6046 12.5ZM25.6046 14.375C24.5446 14.375 17.8571 16.73 17.0858 17.3737C16.8583 17.6025 16.8496 18 16.8983 20.6613C16.9208 21.9437 16.9521 23.6862 16.9521 26.0987C16.9521 32.6 24.1046 35.4862 25.6033 36.0175C27.1008 35.4837 34.2571 32.5812 34.2571 26.0987C34.2571 23.6837 34.2883 21.94 34.3121 20.6575C34.3596 17.9987 34.3508 17.6012 34.1096 17.3612C33.3533 16.73 26.6646 14.375 25.6046 14.375ZM30.2565 21.6744C30.6227 22.0406 30.6227 22.6344 30.2565 23.0006L25.384 27.8744C25.244 28.0154 25.0632 28.1068 24.8691 28.1377L24.7215 28.1494C24.4727 28.1494 24.234 28.0506 24.0577 27.8744L21.6927 25.5069C21.3277 25.1406 21.3277 24.5456 21.694 24.1806C22.059 23.8144 22.654 23.8144 23.0202 24.1806L24.7215 25.8844L28.9315 21.6744C29.2977 21.3081 29.8902 21.3081 30.2565 21.6744Z" fill="#09B8C9"/>
</svg>
