<svg width="50" height="50" viewBox="0 0 50 50" fill="none" xmlns="http://www.w3.org/2000/svg">
<rect width="50" height="50" rx="4" fill="#B1EAED"/>
<path fill-rule="evenodd" clip-rule="evenodd" d="M13.6105 15.6212C14.7593 14.3887 16.3938 13.7012 18.3179 13.7012H32.3058C34.2346 13.7012 35.8699 14.3883 37.0182 15.6216C38.1595 16.8473 38.75 18.5363 38.75 20.4252V29.5751C38.75 31.4646 38.1595 33.1537 37.0179 34.3794C35.8692 35.6125 34.2336 36.2991 32.3044 36.2991H18.3179C16.3892 36.2991 14.7542 35.6124 13.6061 34.3791C12.465 33.1535 11.875 31.4645 11.875 29.5751V20.4252C11.875 18.5352 12.4685 16.8464 13.6105 15.6212ZM14.9821 16.8997C14.2173 17.7201 13.75 18.9246 13.75 20.4252V29.5751C13.75 31.0777 14.2154 32.282 14.9784 33.1015C15.7343 33.9136 16.852 34.4241 18.3179 34.4241H32.3044C33.771 34.4241 34.8895 33.9135 35.6459 33.1014C36.4094 32.2817 36.875 31.0776 36.875 29.5751V20.4252C36.875 18.9235 36.4094 17.7192 35.646 16.8993C34.8896 16.087 33.7715 15.5762 32.3058 15.5762H18.3179C16.8583 15.5762 15.74 16.0866 14.9821 16.8997Z" fill="#09B8C9"/>
<path fill-rule="evenodd" clip-rule="evenodd" d="M21.0701 21.6848C21.542 21.8979 21.7519 22.4532 21.5388 22.925L19.3132 27.8548C19.1488 28.2188 18.7721 28.4386 18.3744 28.4028C17.9767 28.3668 17.6454 28.083 17.5489 27.6955L16.3219 22.7658C16.1969 22.2633 16.5028 21.7546 17.0052 21.6296C17.5077 21.5045 18.0164 21.8104 18.1414 22.3129L18.7159 24.621L19.8299 22.1535C20.043 21.6816 20.5982 21.4718 21.0701 21.6848Z" fill="#09B8C9"/>
<path fill-rule="evenodd" clip-rule="evenodd" d="M23.3651 21.6111C23.8778 21.6845 24.2338 22.1594 24.1604 22.672L23.455 27.6017C23.3816 28.1142 22.9068 28.4702 22.3942 28.397C21.8816 28.3236 21.5256 27.8486 21.5989 27.3361L22.3043 22.4064C22.3777 21.8938 22.8526 21.5378 23.3651 21.6111Z" fill="#09B8C9"/>
<path fill-rule="evenodd" clip-rule="evenodd" d="M31.9888 21.6033C32.3825 21.6273 32.7191 21.8952 32.8308 22.2734L34.2876 27.2031C34.4343 27.6996 34.1507 28.2211 33.6542 28.3679C33.1576 28.5146 32.6362 28.231 32.4895 27.7345L31.7645 25.2811L30.654 27.8418C30.448 28.3169 29.896 28.5349 29.421 28.3289C28.9458 28.1229 28.7278 27.5709 28.9338 27.0958L31.0716 22.1661C31.2286 21.8042 31.5952 21.5793 31.9888 21.6033Z" fill="#09B8C9"/>
<path fill-rule="evenodd" clip-rule="evenodd" d="M26.4118 21.8626C27.0638 21.7164 27.772 21.8331 28.2747 22.027C28.7578 22.2133 28.9985 22.7559 28.8122 23.239C28.626 23.7221 28.0833 23.9628 27.6002 23.7764C27.491 23.7343 27.3476 23.6978 27.196 23.6813C27.0425 23.6645 26.9132 23.6718 26.8222 23.6921C26.792 23.6989 26.7707 23.706 26.7566 23.7118M26.755 23.7333C26.7548 23.7346 26.7548 23.736 26.7547 23.7373C26.752 23.7888 26.7491 23.8441 26.9416 24.0123C27.03 24.0894 27.1216 24.1578 27.2438 24.2489C27.2823 24.2776 27.3237 24.3085 27.3691 24.3426C27.5365 24.4688 27.7541 24.638 27.9468 24.8488L27.2551 25.4814L27.9456 24.8474C28.2396 25.1676 28.5242 25.6416 28.5485 26.2206C28.5731 26.8074 28.3163 27.3571 27.9155 27.7255C27.4518 28.1525 26.8891 28.2814 26.4105 28.2836C25.9385 28.2859 25.4891 28.1681 25.1357 28.032C24.6525 27.8459 24.4117 27.3034 24.5978 26.8201C24.7838 26.337 25.3265 26.0961 25.8096 26.2823C26.021 26.3638 26.2325 26.4095 26.4016 26.4086C26.564 26.4079 26.6225 26.3673 26.6452 26.3464L26.6468 26.3448C26.6553 26.337 26.6645 26.3246 26.6705 26.3108C26.6735 26.3039 26.6746 26.2994 26.675 26.2973C26.6742 26.2921 26.671 26.2758 26.6575 26.2475C26.64 26.2109 26.6096 26.1646 26.5645 26.1155L26.5632 26.1141C26.4958 26.0405 26.3983 25.959 26.2406 25.8401C26.215 25.8208 26.1866 25.7996 26.1561 25.7769C26.0255 25.6798 25.8571 25.5545 25.7083 25.4246C25.3083 25.0753 24.8401 24.5158 24.8822 23.6418V23.6404C24.9057 23.1659 25.0762 22.7395 25.3935 22.4118C25.6976 22.0978 26.0741 21.9384 26.4118 21.8626" fill="#09B8C9"/>
</svg>
