<svg width="48" height="48" viewBox="0 0 48 48" fill="none" xmlns="http://www.w3.org/2000/svg">
<rect width="48" height="48" rx="4" fill="#B1EAED"/>
<path fill-rule="evenodd" clip-rule="evenodd" d="M20.906 13.3125H27.0934C29.6371 13.3125 31.7059 15.3814 31.7059 17.9239V30.075C31.7059 32.6186 29.6371 34.6875 27.0934 34.6875H20.906C18.3623 34.6875 16.2935 32.6186 16.2935 30.075V17.9239C16.2935 15.3814 18.3623 13.3125 20.906 13.3125ZM22.4247 18.8812H25.5747C26.0404 18.8812 26.4184 18.5032 26.4184 18.0375C26.4184 17.5717 26.0404 17.1937 25.5747 17.1937H22.4247C21.9589 17.1937 21.581 17.5717 21.581 18.0375C21.581 18.5032 21.9589 18.8812 22.4247 18.8812ZM22.9309 29.85C22.9309 30.4496 23.4001 30.9187 23.9997 30.9187C24.5048 30.9187 25.0684 30.462 25.0684 29.85C25.0684 29.238 24.5048 28.7812 23.9997 28.7812C23.4957 28.7812 22.9309 29.238 22.9309 29.85Z" fill="#09B8C9"/>
</svg>
