<svg width="48" height="48" viewBox="0 0 48 48" fill="none" xmlns="http://www.w3.org/2000/svg">
<path d="M32.1247 23.0617H32.1238C32.0007 23.0618 31.8788 23.0861 31.7651 23.1333C31.6514 23.1805 31.5481 23.2497 31.4611 23.3368C31.3741 23.4239 31.3052 23.5274 31.2581 23.6411C31.2111 23.7549 31.187 23.8769 31.1871 24C31.1859 25.3143 30.8245 26.6032 30.1421 27.7265C29.4597 28.8498 28.4824 29.7646 27.3166 30.3714C26.1507 30.9782 24.8408 31.2538 23.5292 31.1683C22.2177 31.0827 20.9546 30.6393 19.8774 29.8862C16.6313 27.6133 15.8396 23.1231 18.1126 19.877C20.3855 16.6308 24.8757 15.839 28.1218 18.1121C28.6129 18.455 29.0592 18.858 29.4504 19.3117H26.8121C26.5635 19.3117 26.325 19.4104 26.1492 19.5862C25.9734 19.7621 25.8746 20.0005 25.8746 20.2492C25.8746 20.4978 25.9734 20.7363 26.1492 20.9121C26.325 21.0879 26.5635 21.1867 26.8121 21.1867H31.1871C31.4358 21.1867 31.6742 21.0879 31.85 20.9121C32.0259 20.7363 32.1246 20.4978 32.1246 20.2492V15.8742C32.1246 15.6255 32.0259 15.3871 31.85 15.2112C31.6742 15.0354 31.4358 14.9367 31.1871 14.9367C30.9385 14.9367 30.7 15.0354 30.5242 15.2112C30.3484 15.3871 30.2496 15.6255 30.2496 15.8742V17.4354C29.9206 17.1232 29.5689 16.836 29.1973 16.576C28.2225 15.8934 27.1228 15.4096 25.9609 15.152C24.7991 14.8944 23.598 14.8682 22.426 15.0749C21.2541 15.2815 20.1343 15.717 19.1307 16.3564C18.127 16.9958 17.2591 17.8266 16.5766 18.8014C15.1981 20.7701 14.6581 23.2058 15.0755 25.5727C15.4928 27.9395 16.8333 30.0436 18.802 31.4221C20.3178 32.4898 22.1264 33.063 23.9804 33.0633C24.5144 33.0631 25.0474 33.0162 25.5732 32.9233C27.6714 32.5532 29.5722 31.4557 30.9417 29.8235C32.3112 28.1914 33.062 26.1289 33.0621 23.9983C33.0619 23.7498 32.963 23.5116 32.7873 23.336C32.6115 23.1603 32.3732 23.0617 32.1247 23.0617Z" fill="#18181B"/>
</svg>
