<svg width="48" height="48" viewBox="0 0 48 48" fill="none" xmlns="http://www.w3.org/2000/svg">
<path fill-rule="evenodd" clip-rule="evenodd" d="M16 23.038C16 19.157 19.158 16 23.039 16C26.919 16 30.077 19.157 30.077 23.038C30.077 26.919 26.919 30.077 23.039 30.077C19.158 30.077 16 26.919 16 23.038ZM34.495 33.497L29.896 28.91C31.252 27.329 32.077 25.28 32.077 23.038C32.077 18.055 28.022 14 23.039 14C18.055 14 14 18.055 14 23.038C14 28.022 18.055 32.077 23.039 32.077C25.061 32.077 26.924 31.401 28.431 30.274L33.083 34.913L34.495 33.497Z" fill="#18181B"/>
</svg>
