<svg width="48" height="48" viewBox="0 0 48 48" fill="none" xmlns="http://www.w3.org/2000/svg">
<path fill-rule="evenodd" clip-rule="evenodd" d="M15.7402 15.8974C16.7247 14.8412 18.1267 14.25 19.7822 14.25H28.2169C29.8762 14.25 31.2788 14.8408 32.2629 15.8977C33.2413 16.9484 33.75 18.3989 33.75 20.0264V27.9736C33.75 29.6011 33.2413 31.0516 32.2627 32.1024C31.2785 33.1592 29.8756 33.75 28.2159 33.75H19.7822C18.1228 33.75 16.7204 33.1591 15.7366 32.1023C14.7584 31.0515 14.25 29.601 14.25 27.9736V20.0264C14.25 18.3981 14.7612 16.9477 15.7402 15.8974ZM16.8375 16.9201C16.1602 17.6467 15.75 18.7095 15.75 20.0264V27.9736C15.75 29.2914 16.1586 30.3541 16.8345 31.0802C17.5047 31.8003 18.4934 32.25 19.7822 32.25H28.2159C29.5052 32.25 30.4944 31.8002 31.165 31.0801C31.8412 30.354 32.25 29.2913 32.25 27.9736V20.0264C32.25 18.7087 31.8412 17.646 31.1651 16.9198C30.4946 16.1997 29.5056 15.75 28.2169 15.75H19.7822C18.4983 15.75 17.5092 16.1994 16.8375 16.9201Z" fill="white"/>
<path fill-rule="evenodd" clip-rule="evenodd" d="M27.96 20.9342L26.6468 27.1231L24.7511 25.723C24.4557 25.5047 24.0456 25.5326 23.7824 25.7888L23.0388 26.5127L22.4302 24.5083C22.358 24.2707 22.173 24.0843 21.936 24.0103L20.8576 23.6737L27.96 20.9342ZM26.5908 27.3869C26.5908 27.3868 26.5908 27.387 26.5908 27.3869V27.3869ZM27.9499 19.3304C28.8324 18.9903 29.7395 19.7642 29.5455 20.6883L28.0583 27.6975C27.8583 28.6421 26.7478 29.0644 25.9713 28.4891C25.9711 28.4889 25.9715 28.4892 25.9713 28.4891L24.3723 27.3079L23.5799 28.0793C23.004 28.6322 22.0435 28.3881 21.8076 27.6206L21.8069 27.6182L21.1102 25.3239L19.1631 24.7162C19.1631 24.7162 19.1632 24.7162 19.1631 24.7162C18.2233 24.4229 18.1703 23.1012 19.0991 22.7443C19.0995 22.7442 19.0998 22.744 19.1002 22.7439L27.9499 19.3304Z" fill="white"/>
</svg>
