<svg width="48" height="48" viewBox="0 0 48 48" fill="none" xmlns="http://www.w3.org/2000/svg">
<rect width="48" height="48" rx="4" fill="#B1EAED"/>
<path fill-rule="evenodd" clip-rule="evenodd" d="M23.9987 22.3621C22.5729 22.3621 21.4129 21.2021 21.4129 19.7762C21.4129 18.3504 22.5729 17.1904 23.9987 17.1904C25.4245 17.1904 26.5845 18.3504 26.5845 19.7762C26.5845 21.2021 25.4245 22.3621 23.9987 22.3621ZM23.9987 12.3691C19.8783 12.3691 16.5312 15.7162 16.5312 19.8366C16.5312 24.9479 22.3675 29.9866 23.9987 29.9866C25.6179 29.9866 31.4541 24.9479 31.4541 19.8366C31.4541 15.7162 28.107 12.3691 23.9987 12.3691Z" fill="#09B8C9"/>
<path fill-rule="evenodd" clip-rule="evenodd" d="M32.2316 27.3785C31.7954 27.132 31.242 27.289 30.9979 27.7253C30.7526 28.1615 30.9073 28.7137 31.3447 28.959C32.2812 29.4846 32.7971 30.0718 32.7971 30.6144C32.7971 31.343 31.8872 31.9629 31.3266 32.2783C30.958 32.4958 30.546 32.6867 30.0639 32.8631C26.7337 34.0968 21.2756 34.0992 17.9334 32.8607C17.4875 32.6987 17.0561 32.4994 16.6489 32.2674C16.1052 31.9641 15.1953 31.3442 15.1953 30.6144C15.1953 29.8821 16.1052 29.2635 16.6489 28.959C17.0851 28.7137 17.2398 28.1615 16.9957 27.7253C16.7504 27.289 16.1994 27.1344 15.7608 27.3785C13.7961 28.4805 13.3828 29.7456 13.3828 30.6144C13.3828 31.4808 13.7961 32.7459 15.7572 33.8467C16.249 34.1258 16.7734 34.3675 17.3087 34.562C19.1707 35.252 21.5475 35.6326 24.0005 35.6326C26.4558 35.6326 28.8326 35.252 30.6898 34.5632C31.2734 34.3517 31.7833 34.1137 32.2316 33.8479C34.1964 32.7447 34.6096 31.4808 34.6096 30.6144C34.6096 29.7468 34.1964 28.4817 32.2316 27.3785Z" fill="#09B8C9"/>
</svg>
