<svg width="48" height="48" viewBox="0 0 48 48" fill="none" xmlns="http://www.w3.org/2000/svg">
<path fill-rule="evenodd" clip-rule="evenodd" d="M19.1684 15.5662L22.7681 20.5454L21.1869 23.3107C21.2431 23.4776 21.3334 23.7179 21.4681 24.004C21.7425 24.5872 22.1962 25.3502 22.9108 26.0697C23.6678 26.8321 24.4711 27.3319 25.0859 27.6406C25.3917 27.7942 25.6483 27.8993 25.8253 27.965L28.5635 26.3773L33.6398 30.1467L33.3436 30.6796C32.4953 32.2058 31.4126 33.2961 29.897 34.1502L29.7551 34.2303L29.5927 34.2378C25.1205 34.4439 21.2751 31.9951 18.6872 28.964C17.3888 27.4434 16.3853 25.753 15.7606 24.1261C15.1408 22.5114 14.8718 20.8993 15.1209 19.558L15.1427 19.4405L15.2024 19.3371C16.0593 17.8544 17.1656 16.7492 18.6313 15.8835L19.1684 15.5662ZM25.9009 28.72C25.7192 29.3876 25.7189 29.3876 25.7188 29.3875L25.7173 29.3872L25.7147 29.3864L25.7075 29.3844L25.6853 29.3779C25.6671 29.3725 25.642 29.3648 25.6108 29.3548C25.5481 29.3347 25.4603 29.3052 25.3512 29.2647C25.1331 29.1838 24.8292 29.059 24.4722 28.8797C23.7596 28.5218 22.8248 27.9413 21.9385 27.0488C21.0876 26.1919 20.5505 25.2872 20.2255 24.597C20.0628 24.2511 19.952 23.9564 19.8811 23.7447C19.8456 23.6386 19.82 23.5531 19.8027 23.4918C19.7941 23.4612 19.7875 23.4366 19.7828 23.4186L19.7772 23.3964L19.7755 23.3891L19.7748 23.3864L19.7745 23.3853C19.7745 23.3851 19.7743 23.3844 20.4431 23.224L19.7743 23.3844L19.7111 23.1169L21.131 20.6335L18.8019 17.4118C17.8296 18.0785 17.0716 18.8888 16.4529 19.9277C16.3024 20.9094 16.4956 22.2007 17.0431 23.6268C17.6076 25.0972 18.5269 26.6526 19.7298 28.0614C22.1109 30.8502 25.5188 32.9753 29.3668 32.8608C30.4098 32.2486 31.1904 31.5108 31.8312 30.524L28.4709 28.0288L25.9956 29.464L25.7188 29.3875L25.9009 28.72Z" fill="#0C949D"/>
</svg>
