<svg width="48" height="48" viewBox="0 0 48 48" fill="none" xmlns="http://www.w3.org/2000/svg">
<rect width="48" height="48" rx="4" fill="#B1EAED"/>
<path d="M29.1474 14.625C30.5443 14.625 31.888 15.1771 32.8766 16.1677C33.8661 17.1562 34.4193 18.4896 34.4193 19.8854V28.1146C34.4193 31.0208 32.0547 33.375 29.1474 33.375H18.8568C15.9495 33.375 13.5859 31.0208 13.5859 28.1146V19.8854C13.5859 16.9792 15.9391 14.625 18.8568 14.625H29.1474ZM30.3255 20.0417C30.1068 20.0302 29.8984 20.1042 29.7411 20.25L25.0443 24C24.4401 24.501 23.5745 24.501 22.9609 24L18.2734 20.25C17.9495 20.0104 17.5016 20.0417 17.2318 20.3229C16.9505 20.6042 16.9193 21.0521 17.1578 21.3646L17.2943 21.5L22.0339 25.1979C22.6172 25.6562 23.3245 25.9062 24.0651 25.9062C24.8036 25.9062 25.5234 25.6562 26.1057 25.1979L30.8047 21.4375L30.888 21.3542C31.137 21.0521 31.137 20.6146 30.8766 20.3125C30.7318 20.1573 30.5328 20.0625 30.3255 20.0417Z" fill="#09B8C9"/>
</svg>
