<svg width="50" height="50" viewBox="0 0 50 50" fill="none" xmlns="http://www.w3.org/2000/svg">
<rect width="50" height="50" rx="4" fill="#B1EAED"/>
<path fill-rule="evenodd" clip-rule="evenodd" d="M14.7139 16.4941C15.7673 15.364 17.264 14.7363 19.0188 14.7363H31.6065C33.3655 14.7363 34.863 15.3635 35.916 16.4944C36.962 17.6178 37.4996 19.162 37.4996 20.8811V29.1153C37.4996 30.835 36.962 32.3793 35.9158 33.5025C34.8624 34.6334 33.3646 35.26 31.6053 35.26H19.0188C17.26 35.26 15.7627 34.6333 14.7099 33.5024C13.6641 32.379 13.127 30.8348 13.127 29.1153V20.8811C13.127 19.1609 13.6674 17.6169 14.7139 16.4941ZM16.0855 17.7725C15.4162 18.4906 15.002 19.5502 15.002 20.8811V29.1153C15.002 30.4481 15.4145 31.5075 16.0823 32.2248C16.7429 32.9344 17.7228 33.385 19.0188 33.385H31.6053C32.902 33.385 33.8826 32.9343 34.5436 32.2245C35.2118 31.5073 35.6246 30.4479 35.6246 29.1153V20.8811C35.6246 19.5491 35.2119 18.4897 34.5438 17.7722C33.8826 17.0622 32.9024 16.6113 31.6065 16.6113H19.0188C17.7285 16.6113 16.748 17.0618 16.0855 17.7725Z" fill="#09B8C9"/>
<path fill-rule="evenodd" clip-rule="evenodd" d="M13.125 22.2949C13.125 21.7771 13.5447 21.3574 14.0625 21.3574H36.5601C37.0779 21.3574 37.4976 21.7771 37.4976 22.2949C37.4976 22.8127 37.0779 23.2324 36.5601 23.2324H14.0625C13.5447 23.2324 13.125 22.8127 13.125 22.2949Z" fill="#09B8C9"/>
<path fill-rule="evenodd" clip-rule="evenodd" d="M17.999 28.9649C17.999 28.4471 18.4188 28.0274 18.9365 28.0274H20.7217C21.2395 28.0274 21.6592 28.4471 21.6592 28.9649C21.6592 29.4826 21.2395 29.9024 20.7217 29.9024H18.9365C18.4188 29.9024 17.999 29.4826 17.999 28.9649Z" fill="#09B8C9"/>
<path fill-rule="evenodd" clip-rule="evenodd" d="M22.8535 28.9649C22.8535 28.4471 23.2733 28.0274 23.791 28.0274H25.5763C26.094 28.0274 26.5138 28.4471 26.5138 28.9649C26.5138 29.4826 26.094 29.9024 25.5763 29.9024H23.791C23.2733 29.9024 22.8535 29.4826 22.8535 28.9649Z" fill="#09B8C9"/>
</svg>
