<svg width="50" height="50" viewBox="0 0 50 50" fill="none" xmlns="http://www.w3.org/2000/svg">
<rect width="50" height="50" rx="4" fill="#B1EAED"/>
<path d="M14.8626 29.2965C14.6146 29.2965 14.3767 29.1983 14.201 29.0233C14.0253 28.8483 13.9261 28.6108 13.9251 28.3628L13.9026 21.7103C13.9023 21.5872 13.9262 21.4652 13.973 21.3513C14.0198 21.2374 14.0886 21.1339 14.1754 21.0466C14.2622 20.9593 14.3654 20.89 14.479 20.8426C14.5926 20.7952 14.7145 20.7706 14.8376 20.7703C15.0858 20.7703 15.3239 20.8687 15.4996 21.044C15.6754 21.2192 15.7744 21.4571 15.7751 21.7053L15.7976 28.3553C15.7982 28.4784 15.7746 28.6005 15.728 28.7145C15.6814 28.8285 15.6128 28.9323 15.526 29.0196C15.4393 29.1071 15.3362 29.1765 15.2225 29.224C15.1089 29.2716 14.9858 29.2961 14.8626 29.2965Z" fill="#09B8C9"/>
<path d="M37.3394 29.2245C37.0911 29.2245 36.8531 29.1261 36.6774 28.9509C36.5016 28.7755 36.4025 28.5377 36.4019 28.2895L36.3806 21.6383C36.38 21.3895 36.478 21.1507 36.6534 20.9742C36.8286 20.7977 37.0669 20.698 37.3156 20.697C37.5639 20.697 37.8019 20.7954 37.9776 20.9707C38.1534 21.146 38.2525 21.3838 38.2531 21.632L38.2744 28.2845C38.2749 28.4076 38.2511 28.5295 38.2044 28.6434C38.1577 28.7572 38.0891 28.8607 38.0024 28.9481C37.9156 29.0354 37.8125 29.1047 37.699 29.1521C37.5855 29.1996 37.4624 29.2242 37.3394 29.2245Z" fill="#09B8C9"/>
<path d="M23.0991 36.9121C21.7221 36.9121 20.4013 36.3663 19.4261 35.3941C18.4509 34.422 17.9009 33.1029 17.8966 31.7259L17.8503 18.3296C17.848 16.9499 18.3927 15.6255 19.365 14.6466C20.3374 13.6676 21.6581 13.1141 23.0379 13.1071L29.0641 13.0884H29.0829C30.459 13.0904 31.7785 13.6367 32.7532 14.6082C33.7279 15.5796 34.2787 16.8972 34.2854 18.2734L34.3316 31.6696C34.3362 33.05 33.7925 34.3758 32.82 35.3553C31.8475 36.3349 30.5257 36.8881 29.1454 36.8934L23.1191 36.9121H23.0991ZM29.0829 14.9634H29.0704L23.0454 14.9821C22.1622 14.9864 21.3169 15.3407 20.6945 15.9672C20.0722 16.5938 19.7237 17.4415 19.7253 18.3246L19.7716 31.7196C19.7739 32.6008 20.1257 33.4449 20.7498 34.0669C21.3739 34.6889 22.2192 35.0378 23.1004 35.0371H23.1116L29.1391 35.0184C30.0217 35.0141 30.8666 34.6599 31.4885 34.0336C32.1105 33.4073 32.4586 32.5598 32.4566 31.6771L32.4104 18.2796C32.406 17.3995 32.0537 16.5568 31.4304 15.9355C30.8069 15.3142 29.963 14.9647 29.0829 14.9634Z" fill="#09B8C9"/>
<path d="M26.1123 32.6537C26.8027 32.6537 27.3623 32.0941 27.3623 31.4037C27.3623 30.7135 26.8027 30.1537 26.1123 30.1537C25.4221 30.1537 24.8623 30.7135 24.8623 31.4037C24.8623 32.0941 25.4221 32.6537 26.1123 32.6537Z" fill="#09B8C9"/>
</svg>
