<svg width="48" height="48" viewBox="0 0 48 48" fill="none" xmlns="http://www.w3.org/2000/svg">
<path d="M24.0044 33.7351C22.4844 33.7351 20.9644 33.3751 19.6144 32.6951C19.5144 32.6451 19.4444 32.6551 19.4244 32.6651C18.6144 32.8551 17.3144 33.1751 16.3644 33.4151C15.8544 33.5451 15.3244 33.4051 14.9544 33.0351C14.5844 32.6651 14.4244 32.1451 14.5444 31.6351C14.7844 30.6151 15.1044 29.1851 15.2644 28.4751C15.2744 28.4151 15.2644 28.3551 15.2444 28.3051C14.5844 26.8951 14.2544 25.4451 14.2544 23.9951C14.2544 21.0951 15.5444 18.3551 17.7944 16.4951C20.0344 14.6351 22.9744 13.8851 25.8544 14.4251C29.7444 15.1551 32.8444 18.2551 33.5744 22.1451C34.1144 25.0251 33.3644 27.9651 31.5044 30.2051C29.6344 32.4551 26.9044 33.7451 24.0044 33.7451V33.7351ZM19.4744 31.1551C19.7544 31.1551 20.0244 31.2251 20.2844 31.3551C21.4244 31.9351 22.7144 32.2351 23.9944 32.2351C26.4444 32.2351 28.7644 31.1451 30.3444 29.2351C31.9144 27.3351 32.5544 24.8551 32.0944 22.4051C31.4744 19.1151 28.8544 16.4951 25.5644 15.8851C23.1244 15.4251 20.6344 16.0651 18.7344 17.6351C16.8344 19.2151 15.7344 21.5351 15.7344 23.9851C15.7344 25.2151 16.0144 26.4551 16.5844 27.6651C16.7544 28.0251 16.7944 28.4151 16.7144 28.7951C16.5544 29.5051 16.2344 30.9451 15.9944 31.9651C16.9444 31.7151 18.2544 31.3851 19.0744 31.1951C19.2044 31.1651 19.3344 31.1451 19.4644 31.1451L19.4744 31.1551Z" fill="white"/>
<path d="M25.9945 28.7629C24.6745 28.7629 23.1245 27.9629 21.5845 26.4329C19.1145 23.9629 18.5345 21.4629 20.0745 19.9229L20.2045 19.7929C20.6345 19.3729 21.2145 19.1529 21.8145 19.2129C22.4145 19.2629 22.9445 19.5729 23.2845 20.0729L23.7445 20.7329C24.2545 21.4529 24.2345 22.4029 23.7245 23.0929C24.0845 23.5829 24.4145 23.9429 24.8945 24.2929C25.5845 23.7729 26.5445 23.7529 27.2645 24.2629L27.9245 24.7229C28.4145 25.0629 28.7245 25.6029 28.7845 26.2029C28.8345 26.8029 28.6245 27.3829 28.1945 27.8029L28.0645 27.9329C27.4845 28.5029 26.7845 28.7929 25.9945 28.7929V28.7629ZM21.6245 20.6929C21.5245 20.6929 21.3845 20.7229 21.2545 20.8429L21.1245 20.9729C20.0645 22.0429 21.2045 23.9429 22.6345 25.3729C24.0445 26.7829 25.9245 27.9129 26.9945 26.8529L27.1245 26.7229C27.2745 26.5729 27.2845 26.4029 27.2745 26.3129C27.2745 26.2229 27.2245 26.0529 27.0545 25.9329L26.3945 25.4729C26.1845 25.3229 25.9045 25.3529 25.7245 25.5229L25.4845 25.7529C25.2445 25.9929 24.8645 26.0429 24.5745 25.8629C23.4145 25.1729 22.8445 24.5029 22.1245 23.4229C21.9245 23.1229 21.9645 22.7329 22.2145 22.4829L22.4445 22.2429C22.6245 22.0629 22.6445 21.7829 22.4945 21.5729L22.0345 20.9129C21.9145 20.7429 21.7445 20.7029 21.6545 20.6929C21.6445 20.6929 21.6245 20.6929 21.6045 20.6929H21.6245Z" fill="white"/>
</svg>
